<svg width="24" height="24" viewBox="0 0 24 24" fill="none" xmlns="http://www.w3.org/2000/svg">
<g clip-path="url(#clip0)">
<path d="M23.6176 0.390622C23.6162 0.389216 23.6151 0.387716 23.6137 0.386309C23.6123 0.384903 23.6108 0.383778 23.6094 0.382466C23.2359 0.0120593 22.7001 -0.099222 22.2097 0.0925437L0.833867 8.45069C0.268742 8.67161 -0.0623359 9.22487 0.00980476 9.82726C0.0821329 10.4297 0.534617 10.8889 1.13588 10.97L11.5832 12.379C11.6028 12.3816 11.6184 12.3972 11.6211 12.4169L13.0301 22.8641C13.1111 23.4654 13.5704 23.918 14.1728 23.9902C14.2278 23.9968 14.2824 24 14.3364 24C14.8734 24 15.3486 23.6796 15.5494 23.1662L23.9076 1.79017C24.0993 1.29986 23.9881 0.764169 23.6176 0.390622ZM1.30534 9.715C1.2819 9.71181 1.27135 9.71045 1.26727 9.67652C1.26324 9.64258 1.27318 9.63864 1.29507 9.63016L21.2945 1.81014L11.9403 11.1644C11.8794 11.1467 1.30534 9.715 1.30534 9.715ZM14.3699 22.705C14.3614 22.7269 14.358 22.737 14.3236 22.7328C14.2897 22.7287 14.2882 22.7181 14.2851 22.6948C14.2851 22.6948 12.8534 12.1208 12.8357 12.0598L22.1899 2.70559L14.3699 22.705Z" fill="#0BB68C"/>
</g>
<defs>
<clipPath id="clip0">
<rect width="24" height="24" fill="white"/>
</clipPath>
</defs>
</svg>
