<svg width="44" height="44" viewBox="0 0 44 44" fill="none" xmlns="http://www.w3.org/2000/svg">
<circle opacity="0.1" cx="22" cy="22" r="22" fill="#0BB68C"/>
<g clip-path="url(#clip0)">
<path d="M20.8979 28.2964C20.715 28.4791 20.715 28.776 20.8979 28.9591C21.0812 29.142 21.3779 29.142 21.5606 28.9591C21.7439 28.776 21.7439 28.4791 21.5606 28.2964C21.3779 28.1131 21.0812 28.1131 20.8979 28.2964Z" fill="#0BB68C"/>
<path d="M32.919 27.4821L29.3601 24.4559C29.3436 24.442 29.3263 24.4292 29.3081 24.4177C28.3745 23.8233 27.1757 23.955 26.3929 24.7376L24.4525 26.6777C24.3181 26.8123 24.1176 26.8521 23.9419 26.7795C21.7508 25.8732 19.9509 24.5087 18.5921 22.7243C17.5559 21.3637 17.1823 20.2824 17.1331 20.1301C17.1272 20.0975 17.1179 20.0651 17.1047 20.0334C17.032 19.8576 17.0717 19.6575 17.2065 19.5231L19.1467 17.5823C19.9295 16.7996 20.0609 15.6008 19.4666 14.6671C19.4618 14.6596 19.4569 14.6523 19.4517 14.645L16.8817 11.0735C16.0731 9.81904 14.3118 9.62952 13.2547 10.6864L12.8662 11.075C12.866 11.0753 12.8656 11.0757 12.8653 11.0759L11.478 12.4631C9.82387 14.1174 9.55324 16.6033 10.6956 19.6524C11.6742 22.2642 13.633 25.1226 16.2113 27.7009C18.8506 30.3402 21.7863 32.3353 24.4776 33.3188C27.1414 34.292 29.975 34.4119 31.9805 32.4062L33.2888 31.0981C34.3411 30.0456 34.1575 28.2958 32.919 27.4821ZM28.7793 25.1924L32.335 28.216C32.3513 28.2299 32.3687 28.2427 32.3869 28.2543C33.1464 28.7379 33.2614 29.7999 32.6258 30.4352L32.5288 30.5325L26.4641 25.9918L27.0557 25.4004C27.5181 24.9379 28.2227 24.8542 28.7793 25.1924ZM16.0985 11.5886C16.1033 11.5961 16.1082 11.6036 16.1134 11.6107L18.6823 15.1809C19.0313 15.7396 18.9506 16.4528 18.4838 16.9195L17.9105 17.493L13.8075 11.4593L13.9176 11.3492C14.5557 10.7111 15.6168 10.8318 16.0985 11.5886ZM24.7992 32.4382C22.2335 31.5007 19.419 29.5829 16.8742 27.0381C14.3883 24.5524 12.5058 21.8126 11.5733 19.3235C10.8732 17.4551 10.4036 14.8632 12.1409 13.1261L13.1328 12.134L17.2358 18.1677L16.5438 18.8601C16.1502 19.253 16.0264 19.8345 16.2229 20.3524C16.3708 20.9595 17.0516 22.2199 17.7384 23.1486C18.7492 24.5153 20.5837 26.4047 23.5835 27.6458C24.1107 27.8639 24.7118 27.7441 25.1154 27.3408L25.7945 26.6614L31.8591 31.2021L31.3177 31.7434C29.4553 33.6059 26.745 33.1492 24.7992 32.4382Z" fill="#0BB68C"/>
<path d="M20.018 27.1773C19.5229 26.7432 18.6665 25.9965 18.2155 25.5325C17.1095 24.3959 15.9492 23.0183 15.2593 22.0229C15.1119 21.8101 14.8198 21.757 14.607 21.9046C14.3943 22.052 14.3414 22.3441 14.4888 22.5568C15.3589 23.8122 16.6373 25.2547 17.5435 26.186C18.0196 26.676 18.8833 27.4293 19.3998 27.8821C19.5941 28.0524 19.8902 28.0337 20.0614 27.8387C20.232 27.6442 20.2126 27.348 20.018 27.1773Z" fill="#0BB68C"/>
</g>
<defs>
<clipPath id="clip0">
<rect width="24" height="24" fill="white" transform="translate(10 10)"/>
</clipPath>
</defs>
</svg>
